<svg width="88" height="17" viewBox="0 0 88 17" fill="none" xmlns="http://www.w3.org/2000/svg">
<path d="M79.5383 2.00376C79.7091 1.59312 80.2909 1.59312 80.4617 2.00376L81.9987 5.69936C82.0707 5.87247 82.2336 5.99076 82.4204 6.00574L86.4102 6.3256C86.8535 6.36114 87.0332 6.91439 86.6955 7.20373L83.6557 9.80758C83.5133 9.92956 83.4512 10.1209 83.4947 10.3033L84.4234 14.1966C84.5265 14.6292 84.0559 14.9711 83.6764 14.7393L80.2606 12.653C80.1006 12.5553 79.8994 12.5553 79.7394 12.653L76.3236 14.7393C75.9441 14.9711 75.4735 14.6292 75.5766 14.1966L76.5053 10.3033C76.5488 10.1209 76.4867 9.92956 76.3443 9.80758L73.3045 7.20373C72.9668 6.91439 73.1465 6.36114 73.5898 6.3256L77.5796 6.00574C77.7664 5.99076 77.9293 5.87247 78.0013 5.69936L79.5383 2.00376Z" fill="#343839"/>
<path d="M61.5383 2.00376C61.7091 1.59312 62.2909 1.59312 62.4617 2.00376L63.9987 5.69936C64.0707 5.87247 64.2336 5.99076 64.4204 6.00574L68.4102 6.3256C68.8535 6.36114 69.0332 6.91439 68.6955 7.20373L65.6557 9.80758C65.5133 9.92956 65.4512 10.1209 65.4947 10.3033L66.4234 14.1966C66.5265 14.6292 66.0559 14.9711 65.6764 14.7393L62.2606 12.653C62.1006 12.5553 61.8994 12.5553 61.7394 12.653L58.3236 14.7393C57.9441 14.9711 57.4735 14.6292 57.5766 14.1966L58.5053 10.3033C58.5488 10.1209 58.4867 9.92956 58.3443 9.80758L55.3045 7.20373C54.9668 6.91439 55.1465 6.36114 55.5898 6.3256L59.5796 6.00574C59.7664 5.99076 59.9293 5.87247 60.0013 5.69936L61.5383 2.00376Z" fill="#343839"/>
<path d="M43.5383 2.00376C43.7091 1.59312 44.2909 1.59312 44.4617 2.00376L45.9987 5.69936C46.0707 5.87247 46.2336 5.99076 46.4204 6.00574L50.4102 6.3256C50.8535 6.36114 51.0332 6.91439 50.6955 7.20373L47.6557 9.80758C47.5133 9.92956 47.4512 10.1209 47.4947 10.3033L48.4234 14.1966C48.5265 14.6292 48.0559 14.9711 47.6764 14.7393L44.2606 12.653C44.1006 12.5553 43.8994 12.5553 43.7394 12.653L40.3236 14.7393C39.9441 14.9711 39.4735 14.6292 39.5766 14.1966L40.5053 10.3033C40.5488 10.1209 40.4867 9.92956 40.3443 9.80758L37.3045 7.20373C36.9668 6.91439 37.1465 6.36114 37.5898 6.3256L41.5796 6.00574C41.7664 5.99076 41.9293 5.87247 42.0013 5.69936L43.5383 2.00376Z" fill="#343839"/>
<path d="M25.5383 2.00376C25.7091 1.59312 26.2909 1.59312 26.4617 2.00376L27.9987 5.69936C28.0707 5.87247 28.2336 5.99076 28.4204 6.00574L32.4102 6.3256C32.8535 6.36114 33.0332 6.91439 32.6955 7.20373L29.6557 9.80758C29.5133 9.92956 29.4512 10.1209 29.4947 10.3033L30.4234 14.1966C30.5265 14.6292 30.0559 14.9711 29.6764 14.7393L26.2606 12.653C26.1006 12.5553 25.8994 12.5553 25.7394 12.653L22.3236 14.7393C21.9441 14.9711 21.4735 14.6292 21.5766 14.1966L22.5053 10.3033C22.5488 10.1209 22.4867 9.92956 22.3443 9.80758L19.3045 7.20373C18.9668 6.91439 19.1465 6.36114 19.5898 6.3256L23.5796 6.00574C23.7664 5.99076 23.9293 5.87247 24.0013 5.69936L25.5383 2.00376Z" fill="#343839"/>
<path d="M7.53834 2.00376C7.70914 1.59312 8.29086 1.59312 8.46166 2.00376L9.99874 5.69936C10.0707 5.87247 10.2336 5.99076 10.4204 6.00574L14.4102 6.3256C14.8535 6.36114 15.0332 6.91439 14.6955 7.20373L11.6557 9.80758C11.5133 9.92956 11.4512 10.1209 11.4947 10.3033L12.4234 14.1966C12.5265 14.6292 12.0559 14.9711 11.6764 14.7393L8.26063 12.653C8.10062 12.5553 7.89938 12.5553 7.73937 12.653L4.32363 14.7393C3.94408 14.9711 3.47345 14.6292 3.57665 14.1966L4.50534 10.3033C4.54884 10.1209 4.48665 9.92956 4.34426 9.80758L1.30453 7.20373C0.966758 6.91439 1.14652 6.36114 1.58985 6.3256L5.57955 6.00574C5.76645 5.99076 5.92925 5.87247 6.00126 5.69936L7.53834 2.00376Z" fill="#343839"/>
</svg>
